<?xml version="1.0" encoding="UTF-8"?>
<svg version="1.1"
     fill="currentColor"
     xmlns="http://www.w3.org/2000/svg" 
     width="24" 
     height="24"
     className="icon">
    <path d="M0 0 C1.25182571 -0.0127597 2.50365143 -0.02551941 3.79341125 -0.03866577 C5.14767297 -0.04172407 6.50193679 -0.04395148 7.85620117 -0.04541016 C9.26096224 -0.05184649 10.665722 -0.05857546 12.07048035 -0.06558228 C15.0099091 -0.07752717 17.94922058 -0.08126604 20.88867188 -0.08007812 C24.63431797 -0.07987521 28.37920299 -0.10715999 32.12466908 -0.14162254 C35.02539953 -0.16398623 37.92594964 -0.16791278 40.82675743 -0.16685867 C42.20651557 -0.16920108 43.58627972 -0.17794705 44.96595192 -0.19352341 C53.07299985 -0.27647727 59.52433076 0.1134719 66.58666992 4.29052734 C67.23912186 4.66883698 67.89157379 5.04714661 68.563797 5.43692017 C75.5129261 9.66686796 79.33810882 16.67128653 81.58666992 24.29052734 C82.1275222 27.17301673 82.50701376 30.06906763 82.87573242 32.97802734 C82.98388275 33.79875732 83.09203308 34.6194873 83.20346069 35.46508789 C83.42975617 37.19266215 83.65314445 38.92061946 83.8737793 40.64892578 C84.21071912 43.28309404 84.55812911 45.91572573 84.90698242 48.54833984 C85.12635519 50.23315471 85.34512545 51.91804815 85.56323242 53.60302734 C85.66632721 54.38444092 85.769422 55.16585449 85.87564087 55.97094727 C86.39861854 60.10887665 86.69553352 64.10883554 86.58666992 68.29052734 C87.19510742 68.42587891 87.80354492 68.56123047 88.43041992 68.70068359 C95.36684971 70.40418915 101.61370658 72.92187775 108.0144043 76.04077148 C110.83141267 77.35819054 113.09563883 78.29560447 116.23120117 78.26318359 C119.33612641 76.98105029 121.38466952 75.20800154 123.89916992 72.97802734 C128.77498612 68.75045006 133.79065321 64.77660893 138.96166992 60.91552734 C139.627229 60.41625732 140.29278809 59.9169873 140.97851562 59.40258789 C151.57568803 51.50960415 159.67986066 47.6370464 173.15307617 48.47802734 C182.88431772 50.78075572 189.47039184 56.42617219 196.35620117 63.39599609 C197.68224617 64.71486565 197.68224617 64.71486565 199.03507996 66.06037903 C201.3622743 68.38332848 203.67696029 70.71793095 205.98791504 73.05700684 C207.39825143 74.4771025 208.81794605 75.88706483 210.24169922 77.29370117 C213.00187941 80.02281171 215.74397726 82.76888003 218.48120117 85.52099609 C219.32084915 86.35052292 220.16049713 87.18004974 221.02558899 88.03471375 C228.47909813 95.63726355 232.94395225 103.09208937 233.89916992 113.79052734 C233.61729088 125.3475682 228.34858511 133.79854211 221.15795898 142.38476562 C218.04646885 146.15858352 215.08138071 150.04893385 212.08666992 153.91552734 C211.16942139 155.0895813 211.16942139 155.0895813 210.23364258 156.28735352 C209.6592041 157.0231665 209.08476562 157.75897949 208.49291992 158.51708984 C207.72431641 159.50056396 207.72431641 159.50056396 206.94018555 160.50390625 C204.25317924 163.71779958 204.25317924 163.71779958 203.84838867 167.68505859 C204.56201832 170.20352936 205.3964061 172.56100699 206.39916992 174.97802734 C206.92897461 176.27353516 206.92897461 176.27353516 207.46948242 177.59521484 C207.8381543 178.48466797 208.20682617 179.37412109 208.58666992 180.29052734 C209.31996121 182.05965668 210.04926344 183.8304458 210.77416992 185.60302734 C211.09772461 186.38291016 211.4212793 187.16279297 211.75463867 187.96630859 C212.62271276 190.39121038 213.14266708 192.75657174 213.58666992 195.29052734 C214.34238281 195.34168701 215.0980957 195.39284668 215.87670898 195.44555664 C224.05115647 196.03271609 232.18570571 196.84194729 240.31762695 197.85522461 C241.67007537 198.02121435 243.02330015 198.18099002 244.37719727 198.3347168 C252.33602701 199.23952013 259.49007111 200.38331032 266.58666992 204.29052734 C267.61791992 204.82677734 268.64916992 205.36302734 269.71166992 205.91552734 C275.58713165 210.76916964 279.50316056 216.98860477 281.58666992 224.29052734 C281.85409546 227.38117981 281.85409546 227.38117981 281.87719727 230.70385742 C281.89633682 232.58159599 281.89633682 232.58159599 281.91586304 234.49726868 C281.91892133 235.8515304 281.92114875 237.20579421 281.92260742 238.56005859 C281.92904375 239.96481967 281.93577272 241.36957943 281.94277954 242.77433777 C281.95472444 245.71376652 281.95846331 248.653078 281.95727539 251.5925293 C281.95707248 255.33817539 281.98435726 259.08306041 282.01881981 262.8285265 C282.04118349 265.72925695 282.04511005 268.62980706 282.04405594 271.53061485 C282.04639835 272.91037299 282.05514432 274.29013714 282.07072067 275.66980934 C282.19014178 287.34078671 280.33890953 295.0076177 272.30151367 303.57177734 C265.23490289 310.65448518 257.27743648 312.49232302 247.57104492 313.67724609 C246.75218811 313.78398148 245.9333313 313.89071686 245.08966064 314.00068665 C243.37598748 314.2223641 241.66175885 314.43978668 239.94702148 314.65307617 C237.32819862 314.9790819 234.71133551 315.31824353 232.09448242 315.65966797 C230.420101 315.87462342 228.7456248 316.08884217 227.07104492 316.30224609 C226.29388123 316.40220383 225.51671753 316.50216156 224.71600342 316.60514832 C220.98497217 317.06642815 217.34749493 317.408461 213.58666992 317.29052734 C213.45131836 317.89896484 213.3159668 318.50740234 213.17651367 319.13427734 C211.47300812 326.07070714 208.95531952 332.317564 205.83642578 338.71826172 C204.51900673 341.53527009 203.58159279 343.79949625 203.61401367 346.93505859 C204.89614698 350.03998383 206.66919573 352.08852694 208.89916992 354.60302734 C213.12674721 359.47884354 217.10058833 364.49451063 220.96166992 369.66552734 C221.46093994 370.33108643 221.96020996 370.99664551 222.47460938 371.68237305 C230.36759312 382.27954545 234.24015086 390.38371808 233.39916992 403.85693359 C231.09644155 413.58817514 225.45102508 420.17424926 218.48120117 427.06005859 C217.6019548 427.94408859 216.72270844 428.82811859 215.81681824 429.73893738 C213.49386879 432.06613173 211.15926631 434.38081771 208.82019043 436.69177246 C207.40009477 438.10210885 205.99013244 439.52180347 204.58349609 440.94555664 C201.85438556 443.70573683 199.10831723 446.44783468 196.35620117 449.18505859 C195.11191093 450.44453056 195.11191093 450.44453056 193.84248352 451.72944641 C185.93817076 459.47880274 178.15333539 464.07591719 166.94213867 464.47021484 C155.64802022 463.86540757 147.93198707 458.92961375 139.49243164 451.86181641 C135.71861375 448.75032628 131.82826341 445.78523813 127.96166992 442.79052734 C127.17896729 442.17902832 126.39626465 441.5675293 125.58984375 440.9375 C124.85403076 440.36306152 124.11821777 439.78862305 123.36010742 439.19677734 C122.3766333 438.42817383 122.3766333 438.42817383 121.37329102 437.64404297 C118.15939768 434.95703666 118.15939768 434.95703666 114.19213867 434.55224609 C111.6736679 435.26587574 109.31619028 436.10026353 106.89916992 437.10302734 C106.03549805 437.45623047 105.17182617 437.80943359 104.28198242 438.17333984 C103.3925293 438.54201172 102.50307617 438.91068359 101.58666992 439.29052734 C99.81754059 440.02381863 98.04675146 440.75312086 96.27416992 441.47802734 C95.49428711 441.80158203 94.7144043 442.12513672 93.91088867 442.45849609 C91.48598688 443.32657018 89.12062552 443.8465245 86.58666992 444.29052734 C86.53551025 445.04624023 86.48435059 445.80195313 86.43164062 446.58056641 C85.84448117 454.75501389 85.03524998 462.88956314 84.02197266 471.02148438 C83.85598292 472.37393279 83.69620724 473.72715757 83.54248047 475.08105469 C82.63767714 483.03988443 81.49388694 490.19392853 77.58666992 497.29052734 C77.05041992 498.32177734 76.51416992 499.35302734 75.96166992 500.41552734 C71.10802762 506.29098908 64.88859249 510.20701799 57.58666992 512.29052734 C54.49601746 512.55795288 54.49601746 512.55795288 51.17333984 512.58105469 C49.29560127 512.60019424 49.29560127 512.60019424 47.37992859 512.61972046 C46.02566687 512.62277875 44.67140306 512.62500617 43.31713867 512.62646484 C41.9123776 512.63290118 40.50761784 512.63963015 39.1028595 512.64663696 C36.16343074 512.65858186 33.22411926 512.66232073 30.28466797 512.66113281 C26.53902187 512.6609299 22.79413685 512.68821468 19.04867077 512.72267723 C16.14794031 512.74504092 13.24739021 512.74896747 10.34658241 512.74791336 C8.96682428 512.75025577 7.58706012 512.75900174 6.20738792 512.77457809 C-5.02916209 512.889554 -13.90829724 510.94505689 -22.41333008 503.29052734 C-28.56895845 496.46580894 -30.71467511 488.32204142 -31.80004883 479.40771484 C-31.9601519 478.18086472 -31.9601519 478.18086472 -32.12348938 476.92922974 C-32.34547937 475.21381623 -32.56288649 473.4978039 -32.77587891 471.78125 C-33.10096941 469.16440578 -33.44049739 466.54974484 -33.7824707 463.93505859 C-33.99750719 462.25938541 -34.21172804 460.58360731 -34.42504883 458.90771484 C-34.52500656 458.13257538 -34.62496429 457.35743591 -34.72795105 456.55880737 C-35.23500569 452.43985316 -35.51772806 448.45076627 -35.41333008 444.29052734 C-36.02176758 444.15517578 -36.63020508 444.01982422 -37.25708008 443.88037109 C-44.19350987 442.17686554 -50.44036674 439.65917694 -56.84106445 436.5402832 C-59.65807282 435.22286415 -61.92229899 434.28545021 -65.05786133 434.31787109 C-68.16278656 435.6000044 -70.21132967 437.37305315 -72.72583008 439.60302734 C-77.60164627 443.83060463 -82.61731337 447.80444576 -87.78833008 451.66552734 C-88.45388916 452.16479736 -89.11944824 452.66406738 -89.80517578 453.1784668 C-100.40234818 461.07145054 -108.50652082 464.94400829 -121.97973633 464.10302734 C-131.84372761 461.76888606 -138.4586749 455.99189364 -145.43676758 448.93115234 C-146.3453653 448.02733826 -147.25396301 447.12352417 -148.19009399 446.19232178 C-150.09905853 444.2906717 -151.99883326 442.38042328 -153.89233398 440.46337891 C-156.30274358 438.02444375 -158.73497509 435.60871236 -161.17456627 433.19900894 C-163.52423808 430.87188801 -165.85453015 428.52574672 -168.18676758 426.18115234 C-169.48679214 424.89630951 -169.48679214 424.89630951 -170.81307983 423.58551025 C-176.79155398 417.49046253 -181.53927337 411.03109443 -182.41333008 402.29052734 C-182.47649414 401.67048828 -182.5396582 401.05044922 -182.60473633 400.41162109 C-183.28424509 388.15854372 -177.50785595 379.29552171 -169.98461914 370.21240234 C-166.88617228 366.42263017 -163.91227825 362.53411642 -160.91333008 358.66552734 C-160.30183105 357.88290527 -159.69033203 357.1002832 -159.06030273 356.29394531 C-158.48586426 355.55805176 -157.91142578 354.8221582 -157.31958008 354.06396484 C-156.80717773 353.40831543 -156.29477539 352.75266602 -155.7668457 352.07714844 C-153.0798394 348.8632551 -153.0798394 348.8632551 -152.67504883 344.89599609 C-153.38867848 342.37752532 -154.22306626 340.0200477 -155.22583008 337.60302734 C-155.5790332 336.73935547 -155.93223633 335.87568359 -156.29614258 334.98583984 C-156.66481445 334.09638672 -157.03348633 333.20693359 -157.41333008 332.29052734 C-158.14662137 330.52139801 -158.8759236 328.75060888 -159.60083008 326.97802734 C-159.92438477 326.19814453 -160.24793945 325.41826172 -160.58129883 324.61474609 C-161.44937291 322.1898443 -161.96932724 319.82448294 -162.41333008 317.29052734 C-163.54689941 317.21378784 -163.54689941 317.21378784 -164.70336914 317.13549805 C-172.87781663 316.5483386 -181.01236587 315.7391074 -189.14428711 314.72583008 C-190.49673553 314.55984034 -191.84996031 314.40006466 -193.20385742 314.24633789 C-201.16268717 313.34153456 -208.31673126 312.19774436 -215.41333008 308.29052734 C-216.44458008 307.75427734 -217.47583008 307.21802734 -218.53833008 306.66552734 C-224.41379181 301.81188504 -228.32982072 295.59244992 -230.41333008 288.29052734 C-230.68075562 285.19987488 -230.68075562 285.19987488 -230.70385742 281.87719727 C-230.71661713 280.62537155 -230.72937683 279.37354584 -230.74252319 278.08378601 C-230.74558149 276.72952429 -230.74780891 275.37526048 -230.74926758 274.02099609 C-230.75570391 272.61623502 -230.76243288 271.21147526 -230.7694397 269.80671692 C-230.78138459 266.86728817 -230.78512347 263.92797668 -230.78393555 260.98852539 C-230.78373264 257.24287929 -230.81101741 253.49799428 -230.84547997 249.75252819 C-230.86784365 246.85179774 -230.8717702 243.95124763 -230.87071609 241.05043983 C-230.8730585 239.6706817 -230.88180447 238.29091755 -230.89738083 236.91124535 C-230.98033469 228.80419741 -230.59038552 222.3528665 -226.41333008 215.29052734 C-226.03502045 214.63807541 -225.65671082 213.98562347 -225.26693726 213.31340027 C-221.04014812 206.36946034 -214.03186013 202.52841601 -206.41333008 200.29052734 C-203.44623383 199.74647509 -200.46541682 199.3691304 -197.47192383 199.00146484 C-196.20397728 198.83923935 -196.20397728 198.83923935 -194.91041565 198.67373657 C-193.13155906 198.44741748 -191.35232726 198.22403023 -189.57275391 198.00341797 C-186.85525882 197.66607711 -184.13915608 197.31889993 -181.4230957 196.97021484 C-179.68944507 196.75088451 -177.95572332 196.53211539 -176.22192383 196.31396484 C-175.00925087 196.15932266 -175.00925087 196.15932266 -173.77207947 196.0015564 C-169.95989027 195.5324702 -166.26362874 195.16419319 -162.41333008 195.29052734 C-162.27797852 194.68208984 -162.14262695 194.07365234 -162.00317383 193.44677734 C-160.29966828 186.51034755 -157.78197967 180.26349069 -154.66308594 173.86279297 C-153.34566688 171.0457846 -152.40825295 168.78155844 -152.44067383 165.64599609 C-153.72280713 162.54107086 -155.49585588 160.49252775 -157.72583008 157.97802734 C-161.95340737 153.10221115 -165.92724849 148.08654406 -169.78833008 142.91552734 C-170.2876001 142.24996826 -170.78687012 141.58440918 -171.30126953 140.89868164 C-178.36366551 131.41666189 -183.92410832 122.56560056 -182.41333008 110.29052734 C-180.25231394 98.74709947 -172.91922761 91.48149781 -164.86645508 83.37255859 C-164.05521179 82.55228683 -163.24396851 81.73201508 -162.40814209 80.8868866 C-160.69969144 79.16400501 -158.98848196 77.44385518 -157.2746582 75.72631836 C-154.67259323 73.11233293 -152.08979783 70.48025264 -149.50708008 67.84716797 C-147.83635889 66.16698341 -146.16452014 64.48790922 -144.49145508 62.81005859 C-143.73068665 62.02975784 -142.96991821 61.24945709 -142.18609619 60.44551086 C-134.81418495 53.13409168 -127.3217326 48.907349 -116.91333008 47.97802734 C-105.35628922 48.25990639 -96.90531532 53.52861215 -88.3190918 60.71923828 C-84.5452739 63.83072841 -80.65492357 66.79581656 -76.78833008 69.79052734 C-76.00562744 70.40202637 -75.2229248 71.01352539 -74.41650391 71.64355469 C-73.68069092 72.21799316 -72.94487793 72.79243164 -72.18676758 73.38427734 C-71.53111816 73.89667969 -70.87546875 74.40908203 -70.19995117 74.93701172 C-66.98605784 77.62401802 -66.98605784 77.62401802 -63.01879883 78.02880859 C-60.50032806 77.31517895 -58.14285044 76.48079116 -55.72583008 75.47802734 C-54.8621582 75.12482422 -53.99848633 74.77162109 -53.10864258 74.40771484 C-52.21918945 74.03904297 -51.32973633 73.67037109 -50.41333008 73.29052734 C-48.64420074 72.55723605 -46.87341162 71.82793382 -45.10083008 71.10302734 C-44.32094727 70.77947266 -43.54106445 70.45591797 -42.73754883 70.12255859 C-40.31264704 69.25448451 -37.94728568 68.73453018 -35.41333008 68.29052734 C-35.36217041 67.53481445 -35.31101074 66.77910156 -35.25830078 66.00048828 C-34.67114133 57.8260408 -33.86191014 49.69149155 -32.84863281 41.55957031 C-32.68264307 40.20712189 -32.5228674 38.85389712 -32.36914062 37.5 C-31.06585045 26.03600086 -28.78329367 14.21379437 -19.30395508 6.59521484 C-13.09026978 2.27899721 -7.66219559 0.05327347 0 0 Z M-55.05395508 186.72851562 C-74.85544664 209.48173815 -82.33326789 238.68028637 -80.41333008 268.29052734 C-77.30476186 295.95379543 -62.94064472 319.89521076 -42.41333008 338.29052734 C-18.79826499 357.09116626 10.30066506 365.35670185 40.2980957 361.98583984 C67.89267804 357.83101892 92.62463002 343.08401344 109.99682617 321.26318359 C127.15124044 297.45885917 135.1620493 269.2307926 130.89916992 239.95068359 C126.05198864 211.71920011 110.78155791 186.45337617 87.39916992 169.60302734 C41.00801117 138.9497676 -17.35600808 145.39282031 -55.05395508 186.72851562 Z " fill="#000000" transform="translate(230.413330078125,-0.29052734375)"/>
</svg>
